<svg xmlns="http://www.w3.org/2000/svg" version="1.1" xmlns:xlink="http://www.w3.org/1999/xlink" xmlns:svgjs="http://svgjs.com/svgjs" width="512" height="512" x="0" y="0" viewBox="0 0 15.08 15.08" style="enable-background:new 0 0 512 512" xml:space="preserve" class=""><g><path d="M7.548 0C3.386 0 0 3.382 0 7.541c0 4.156 3.386 7.539 7.548 7.539 4.153 0 7.531-3.383 7.531-7.539C15.079 3.382 11.701 0 7.548 0zm0 14.187c-3.669 0-6.655-2.981-6.655-6.646S3.878.895 7.548.895c3.66 0 6.638 2.981 6.638 6.646s-2.978 6.646-6.638 6.646z" style="" fill="#70625e" data-original="#030104" class=""></path><path d="M11.366 6.731a1.226 1.226 0 0 0-2.452 0" style="" fill="#70625e" data-original="#030104" class=""></path><circle cx="5.018" cy="5.955" r="1.225" style="" fill="#70625e" data-original="#030104" class=""></circle><path d="M4.188 11.029c.588.317 6.155 4.021 7.553-2.734-2.144 3.366-4.191 3.589-7.553 2.734z" style="" fill="#70625e" data-original="#030104" class=""></path></g></svg>